PathFileType	4	(X/Y/Z)	RBDS021\RBDS021runT25.trc
DataRate	CameraRate	NumFrames	NumMarkers	Units	OrigDataRate	OrigDataStartFrame	OrigNumFrames
150.000000	150.000000	4	33	mm	150.000000	562	4500
Frame#	Time	L.ASIS			L.Heel.Bottom			L.Heel.Lateral			L.Heel.Top			L.Iliac.Crest			L.MT1			L.MT5			L.PSIS			L.Shank.Bottom.Lateral			L.Shank.Bottom.Medial			L.Shank.Top.Lateral			L.Shank.Top.Medial			L.Thigh.Bottom.Lateral			L.Thigh.Bottom.Medial			L.Thigh.Top.Lateral			L.Thigh.Top.Medial			R.ASIS			R.ASY			R.Heel.Bottom			R.Heel.Lateral			R.Heel.Top			R.Iliac.Crest			R.MT1			R.MT5			R.PSIS			R.Shank.Bottom.Lateral			R.Shank.Bottom.Medial			R.Shank.Top.Lateral			R.Shank.Top.Medial			R.Thigh.Bottom.Lateral			R.Thigh.Bottom.Medial			R.Thigh.Top.Lateral			R.Thigh.Top.Medial			
		X1	Y1	Z1	X2	Y2	Z2	X3	Y3	Z3	X4	Y4	Z4	X5	Y5	Z5	X6	Y6	Z6	X7	Y7	Z7	X8	Y8	Z8	X9	Y9	Z9	X10	Y10	Z10	X11	Y11	Z11	X12	Y12	Z12	X13	Y13	Z13	X14	Y14	Z14	X15	Y15	Z15	X16	Y16	Z16	X17	Y17	Z17	X18	Y18	Z18	X19	Y19	Z19	X20	Y20	Z20	X21	Y21	Z21	X22	Y22	Z22	X23	Y23	Z23	X24	Y24	Z24	X25	Y25	Z25	X26	Y26	Z26	X27	Y27	Z27	X28	Y28	Z28	X29	Y29	Z29	X30	Y30	Z30	X31	Y31	Z31	X32	Y32	Z32	X33	Y33	Z33	

563	3.746666666666667	1917.33310257049	942.1960068745854	892.5259429936538	1592.710462146994	342.6650783590985	947.1525099579108	1615.388785553439	331.1466568373502	895.7643637686219	1638.441575397722	353.5461906905871	940.4239610298479	1849.195285981708	1023.843128810893	843.8784309552915	1694.01767626507	148.9366424900778	943.7971860627563	1657.025596246399	188.599668050585	842.2820100805767	1738.928875572725	998.1892237172448	960.6219139768064	1740.843151358922	353.6438019162843	868.2231471407339	1726.093440622899	383.3920435557142	913.2859112859064	1805.029398251118	400.7756137822371	859.1996834648055	1791.245636109828	430.5192583286353	902.0094902158116	1973.351080714656	619.0364015651395	833.231761367139	1912.807975930493	594.3644995466929	862.2774363823863	1923.200586705454	715.5620483703542	816.241181994713	1864.559408799959	691.8790574668354	843.1297257660902	1912.827989790258	950.67395411633	1118.158230624903	1743.326909393053	75.83104522095728	1050.476127446807	1576.305085655817	61.61421211061234	969.4215120728792	1587.030267657197	72.22308464215946	1023.563749215823	1590.901040336881	103.4218568093845	978.7704672460302	1855.308310690448	1010.613412542209	1163.2123841468	1780.1505116437	39.91916826847594	1008.071514562964	1715.994304158273	36.19779129872965	1104.203890842469	1737.222360461462	997.779796918417	1036.594277623894	1664.046299467772	186.1543434411493	1070.043024377461	1649.679719022152	209.5456841186598	1026.659685564668	1693.607334423203	260.3927628921297	1098.546125351206	1674.787554416211	281.6631354364224	1053.318571886589	1833.429305932146	602.4695239254626	1168.454751760902	1768.065264168664	596.3783454397144	1135.411341977505	1812.431531354974	709.6911114568447	1181.803412283962	1752.915780850579	703.9426095280878	1146.609268801484	
564	3.753333333333333	1917.315043467619	948.4920310603808	891.8319183364836	1606.902224427406	327.0516192279196	948.3371100542231	1630.114579719829	316.6649852159347	896.8751716372919	1651.877681294008	340.6495192339304	941.3287730252764	1847.726133093155	1029.56229448509	843.7620663384007	1719.616473691559	139.7928821528727	945.640331368944	1679.93189772628	176.5239841585278	844.0381730479676	1739.246724157261	1003.127341123604	960.8310171643571	1754.343968359762	346.3241534767615	869.3175059777614	1737.857464852059	375.4235478952831	914.2614798980505	1815.860101680647	396.9807231539033	860.1985990357304	1800.260149826034	426.1418424696265	902.852286447048	1978.477439749713	627.121235906141	833.8373356078416	1918.283423951641	601.3825624641552	862.6335921108825	1926.664896474935	722.6346561537869	816.1879261826065	1868.220061500831	697.7975792921496	842.3711429239225	1913.455619119395	953.8541736528662	1117.892862147393	1727.684945237703	76.32920313580195	1052.041385724109	1560.557464725503	66.84023031362976	970.7544512475996	1571.454121422901	76.38172532705951	1025.05286730685	1575.898784952215	108.2056533057409	980.749741723493	1858.340224466923	1014.56632106875	1162.543676102877	1763.232300654243	40.3866585882886	1008.797610120712	1699.12123847185	36.39127763530186	1104.672688510519	1738.045693430808	1002.229858802678	1036.956726069966	1648.924655344197	190.1547740678798	1071.209822491896	1634.807300987036	213.3637200762325	1027.673711054846	1678.725529842259	264.4127961620549	1099.449899640353	1660.074302366094	285.529919035701	1054.060851849783	1823.953700846061	606.1545324780429	1167.923509920463	1758.765907191409	602.0859491892005	1134.316552608562	1806.199240929179	713.9231188496256	1181.121028240786	1746.834329072191	710.1129451076567	1145.405253218821	
565	3.76	1917.543182488285	954.9153530288212	891.3391406009741	1621.920046014905	310.6609563662533	949.9168428112846	1645.569867989249	301.5471228924094	898.35321326104	1665.950228686288	327.0246860126755	942.6127388247151	1846.676781500983	1035.552443866699	843.6496029603859	1746.108073571281	130.8009916713201	947.3766784374269	1703.706274497134	164.475489468614	845.8195311549797	1739.83951919006	1008.430445707756	960.8750700375915	1768.02685099449	338.5995971627229	870.6025633066212	1749.87775955563	366.8490362259059	915.4726156933235	1826.486335190397	392.8099864537733	861.3213297143543	1809.154643002152	421.1732134137483	903.8717966518732	1983.11586480904	635.2677060892959	834.3545461331064	1923.16325634466	608.648347199815	862.7942547554763	1929.997110420805	729.9155069912476	816.0288123590876	1871.65820987981	704.1019778007141	841.4207103625483	1914.300804929071	957.393564407712	1117.632346177747	1712.405366609318	76.82421564434136	1053.832044555784	1545.270276873825	72.79141869968866	972.3480930389528	1556.356845598506	81.12162738123176	1026.782586078165	1561.483028042444	113.6017689944574	983.0464378634302	1861.889705946794	1018.695285499109	1161.760880992919	1746.538242927213	40.81605930140336	1009.637374937246	1682.425872811829	36.6079221915484	1105.230575960595	1739.147377005137	1006.985266316765	1037.203538496359	1634.135014952333	194.6108317717807	1072.580854189785	1620.29739650208	217.5471212220945	1028.841248388356	1664.044175098407	268.9736339906215	1100.467521339233	1645.560289482249	289.8187505605613	1054.880261725322	1814.474137363229	610.4671371066121	1167.342379793456	1749.649835046911	608.5128542585169	1132.960802957007	1800.08452983944	718.6966390500309	1180.368238747685	1741.032422095469	716.9041308160589	1144.001917422139	
566	3.766666666666667	1918.009020385649	961.3374099523596	891.0584958858333	1637.879774489457	293.6595953463726	951.8105575416566	1661.856742349511	285.9249134928064	900.1265595804715	1680.76413478652	312.7957575343448	944.2105270973067	1846.058773285866	1041.804737493413	843.5399378670566	1773.436968948703	122.1153579919354	948.99448662536	1728.354326385775	152.5854129843468	847.592935896363	1740.708536570865	1014.037433125153	960.791996665806	1781.97600487103	330.515062397308	872.0350302112513	1762.252509641608	357.7224287523962	916.8706466965161	1837.005180213096	388.2412157992825	862.5391686378365	1818.039255311646	415.6034816770483	905.0373121334204	1987.240958783635	643.3248388517699	834.791575949812	1927.405356120691	616.0026441495013	862.7462316830089	1933.167829033314	737.2802850690811	815.8101797839357	1874.839082926715	710.6704850197307	840.3409965286511	1915.358546016166	961.2485848191767	1117.363417439331	1697.534504854951	77.31895079373318	1055.823760945641	1530.534229124898	79.4820773886855	974.2198249862039	1541.828174206706	86.46510992521246	1028.763901451997	1547.751315322619	119.6105506703033	985.6614620345916	1865.859824661307	1023.004847402482	1160.878846630294	1730.122807785052	41.19774532627334	1010.582050196066	1665.962430921437	36.88098310611246	1105.88965896417	1740.522600182958	1011.990929430298	1037.368674594875	1619.762665308633	199.4817169224853	1074.155301009757	1606.238153149216	222.0490274040501	1030.15876615708	1649.636549700476	274.0383804608672	1101.588128750373	1631.327538405469	294.4848196078106	1055.76287230217	1805.071901043565	615.3823793920569	1166.73430945198	1740.776134444194	615.6106463828768	1131.422686373626	1794.173692886307	723.9740622006005	1179.570978695146	1735.572981084597	724.2558082025799	1142.46920072743	
